<svg width="4878" height="4599" viewBox="0 0 4878 4599" fill="none" xmlns="http://www.w3.org/2000/svg">
<g filter="url(#filter0_d_279_2106)">
<path d="M16.4265 4578.13L4582.13 12.4264L2299.28 12.4263L16.4257 2295.28L16.4265 4578.13Z" fill="white" fill-opacity="0.2" shape-rendering="crispEdges"/>
<path d="M2299.48 12.9263L4580.92 12.9264L16.9264 4576.92L16.9256 2295.49L2299.48 12.9263Z" stroke="white" shape-rendering="crispEdges"/>
</g>
<path d="M489.525 2961.27C464.423 2936.17 447.287 2908.65 438.115 2878.72C428.944 2848.31 428.581 2818.02 437.029 2787.85C445.235 2757.44 461.889 2729.69 486.99 2704.58C518.85 2672.72 554.209 2654.5 593.068 2649.92C631.685 2645.09 668.734 2654.14 704.214 2677.07L627.823 2753.46C613.583 2748.39 599.826 2747.43 586.551 2750.56C573.518 2753.46 561.691 2760.22 551.071 2770.84C534.659 2787.25 527.418 2806.32 529.349 2828.04C531.28 2849.28 542.02 2869.67 561.57 2889.22C581.362 2909.02 601.998 2920 623.479 2922.17C644.96 2923.86 663.907 2916.5 680.319 2900.09C690.939 2889.47 697.697 2877.64 700.593 2864.61C703.731 2851.33 702.765 2837.57 697.697 2823.33L774.087 2746.94C797.016 2782.42 806.188 2819.59 801.602 2858.45C796.775 2897.07 778.432 2932.31 746.572 2964.17C721.471 2989.27 693.835 3006.04 663.665 3014.49C633.254 3022.7 602.963 3022.33 572.794 3013.4C542.624 3003.99 514.867 2986.61 489.525 2961.27ZM997.759 2714.43C977.485 2734.7 955.039 2748.7 930.42 2756.42C906.043 2763.91 881.424 2764.39 856.564 2757.87C831.704 2751.36 808.654 2737.48 787.415 2716.24C766.416 2695.24 752.659 2672.31 746.142 2647.45C739.867 2622.35 740.47 2597.61 747.952 2573.23C755.676 2548.61 769.675 2526.17 789.949 2505.89C810.223 2485.62 832.549 2471.74 856.926 2464.26C881.545 2456.53 906.284 2455.93 931.144 2462.45C956.245 2468.72 979.295 2482.36 1000.29 2503.36C1021.29 2524.36 1035.05 2547.53 1041.57 2572.87C1048.08 2597.73 1047.48 2622.47 1039.76 2647.09C1032.03 2671.71 1018.03 2694.15 997.759 2714.43ZM936.212 2652.88C946.108 2642.98 950.694 2631.16 949.97 2617.4C949.246 2603.16 942.005 2589.16 928.248 2575.4C914.49 2561.65 900.612 2554.53 886.613 2554.04C872.856 2553.32 861.15 2557.79 851.495 2567.44C841.841 2577.09 837.376 2588.8 838.1 2602.56C838.824 2616.31 846.065 2630.07 859.822 2643.83C873.821 2657.83 887.579 2665.31 901.095 2666.28C914.611 2667.24 926.317 2662.78 936.212 2652.88ZM1191.36 2105.93C1216.94 2080.35 1244.7 2068.04 1274.63 2069.01C1304.8 2069.73 1333.28 2083.49 1360.07 2110.28L1478.45 2228.66L1407.49 2299.62L1298.52 2190.65C1287.66 2179.79 1276.19 2174.36 1264.13 2174.36C1252.06 2174.36 1240.84 2179.55 1230.46 2189.93C1220.08 2200.3 1214.89 2211.53 1214.89 2223.6C1214.89 2235.66 1220.32 2247.13 1231.18 2257.99L1340.15 2366.96L1269.19 2437.92L1160.22 2328.95C1149.36 2318.09 1137.9 2312.66 1125.83 2312.66C1114 2312.42 1102.9 2317.48 1092.52 2327.86C1081.9 2338.48 1076.59 2349.83 1076.59 2361.89C1076.59 2373.96 1082.02 2385.43 1092.88 2396.29L1201.86 2505.26L1130.9 2576.22L927.792 2373.12L998.752 2302.16L1025.54 2328.95C1023.13 2313.99 1024.34 2299.02 1029.16 2284.06C1033.99 2268.61 1042.92 2254.37 1055.95 2241.34C1070.92 2226.37 1087.45 2216.36 1105.55 2211.29C1123.9 2205.98 1142.36 2205.86 1160.95 2210.92C1157.08 2192.58 1157.69 2174.12 1162.76 2155.53C1167.58 2136.71 1177.12 2120.17 1191.36 2105.93ZM1331.24 1932.02C1318.69 1944.57 1305.18 1951.33 1290.69 1952.29C1276.21 1952.77 1263.78 1947.83 1253.4 1937.45C1242.78 1926.83 1237.72 1914.28 1238.2 1899.79C1238.92 1885.07 1245.56 1871.44 1258.11 1858.88C1270.42 1846.58 1283.81 1840.18 1298.3 1839.7C1313.02 1838.97 1325.69 1843.92 1336.31 1854.54C1346.69 1864.92 1351.52 1877.47 1350.79 1892.19C1350.07 1906.43 1343.55 1919.71 1331.24 1932.02ZM1385.19 1915.72L1588.29 2118.83L1517.33 2189.79L1314.23 1986.68L1385.19 1915.72ZM1556.65 1740.64C1580.07 1717.22 1606.49 1706.48 1635.94 1708.42C1665.14 1710.1 1693.02 1724.22 1719.57 1750.77L1837.96 1869.16L1767 1940.12L1658.02 1831.15C1646.44 1819.56 1634.37 1813.53 1621.82 1813.04C1609.03 1812.32 1597.56 1817.03 1587.43 1827.16C1576.81 1837.78 1571.86 1849.49 1572.58 1862.28C1573.07 1874.83 1579.1 1886.9 1590.69 1898.49L1699.66 2007.46L1628.7 2078.42L1425.6 1875.31L1496.55 1804.36L1525.52 1833.32C1522.62 1817.87 1523.71 1802.06 1528.78 1785.89C1533.6 1769.48 1542.9 1754.39 1556.65 1740.64ZM1746.2 1549.64C1759.96 1535.89 1774.68 1526.72 1790.37 1522.13C1806.3 1517.3 1821.74 1516.82 1836.71 1520.68L1808.47 1492.44L1879.43 1421.48L2080.36 1622.41C2099.43 1641.48 2112.94 1662.24 2120.91 1684.68C2129.11 1707.37 2130.08 1731.03 2123.8 1755.64C2117.77 1780.02 2103.05 1803.92 2079.64 1827.33C2048.26 1858.7 2015.8 1876.44 1982.25 1880.55C1948.7 1884.65 1917.92 1875.36 1889.93 1852.67L1959.8 1782.8C1967.77 1787.87 1976.45 1789.31 1985.87 1787.14C1995.28 1784.97 2004.57 1779.3 2013.74 1770.13C2037.88 1745.99 2036.43 1720.41 2009.4 1693.37L1983.33 1667.31C1987.19 1682.27 1986.71 1697.72 1981.88 1713.65C1977.3 1729.34 1968.13 1744.06 1954.37 1757.82C1938.2 1773.99 1919.25 1784.49 1897.53 1789.31C1876.05 1793.9 1853.6 1792.21 1830.19 1784.25C1806.78 1775.8 1784.57 1761.07 1763.58 1740.08C1742.58 1719.08 1727.98 1696.99 1719.77 1673.82C1711.8 1650.41 1710.11 1627.97 1714.7 1606.48C1719.53 1584.76 1730.03 1565.82 1746.2 1549.64ZM1909.84 1593.81C1896.81 1580.78 1882.93 1574.14 1868.2 1573.9C1853.72 1573.42 1841.29 1578.37 1830.91 1588.74C1820.29 1599.36 1815.23 1611.91 1815.71 1626.4C1815.95 1640.64 1822.71 1654.39 1835.98 1667.67C1849.02 1680.7 1862.89 1687.58 1877.62 1688.3C1892.1 1688.79 1904.65 1683.72 1915.27 1673.1C1925.65 1662.72 1930.6 1650.29 1930.11 1635.81C1929.87 1621.09 1923.11 1607.09 1909.84 1593.81ZM2291.1 1421.09C2261.41 1450.77 2230.04 1468.15 2196.97 1473.22C2163.66 1478.05 2133.13 1468.03 2105.37 1443.17L2181.04 1367.5C2190.69 1375.71 2199.87 1379.57 2208.55 1379.09C2217.24 1378.61 2225.21 1374.75 2232.45 1367.5C2238.97 1360.99 2242.71 1354.11 2243.67 1346.87C2244.64 1339.15 2242.22 1332.39 2236.43 1326.59C2228.95 1319.11 2219.66 1316.82 2208.55 1319.72C2197.45 1322.61 2181.52 1329.37 2160.77 1339.99C2138.56 1351.09 2119.73 1359.3 2104.29 1364.61C2088.84 1369.44 2072.31 1370.76 2054.69 1368.59C2037.07 1365.94 2020.17 1356.52 2004 1340.35C1987.59 1323.94 1977.69 1305.84 1974.32 1286.05C1970.7 1266.01 1973.11 1245.74 1981.56 1225.22C1990 1204.71 2003.4 1185.28 2021.74 1166.94C2051.43 1137.25 2082.08 1120.59 2113.7 1116.97C2145.32 1112.87 2174.28 1122.77 2200.59 1146.66L2123.48 1223.78C2115.51 1216.29 2107.3 1212.91 2098.86 1213.64C2090.65 1214.12 2083.05 1217.86 2076.05 1224.86C2070.74 1230.17 2067.96 1236.08 2067.72 1242.6C2067.48 1249.12 2070.26 1255.27 2076.05 1261.07C2080.88 1265.89 2086.91 1268.31 2094.15 1268.31C2101.39 1267.82 2109.11 1266.13 2117.32 1263.24C2125.29 1260.1 2136.63 1255.03 2151.35 1248.03C2173.08 1237.41 2191.9 1229.69 2207.83 1224.86C2223.76 1219.55 2240.41 1218.1 2257.79 1220.52C2275.17 1222.45 2291.34 1230.9 2306.31 1245.86C2321.51 1261.07 2331.29 1278.56 2335.63 1298.36C2340.22 1317.91 2338.77 1338.42 2331.29 1359.9C2324.05 1381.14 2310.65 1401.54 2291.1 1421.09ZM2513.8 1198.39C2493.52 1218.66 2471.08 1232.66 2446.46 1240.39C2422.08 1247.87 2397.46 1248.35 2372.6 1241.83C2347.74 1235.32 2324.69 1221.44 2303.45 1200.2C2282.45 1179.2 2268.7 1156.27 2262.18 1131.41C2255.9 1106.31 2256.51 1081.57 2263.99 1057.2C2271.71 1032.58 2285.71 1010.13 2305.99 989.856C2326.26 969.582 2348.59 955.704 2372.96 948.222C2397.58 940.498 2422.32 939.895 2447.18 946.411C2472.28 952.687 2495.33 966.324 2516.33 987.322C2537.33 1008.32 2551.09 1031.49 2557.6 1056.83C2564.12 1081.69 2563.52 1106.43 2555.79 1131.05C2548.07 1155.67 2534.07 1178.12 2513.8 1198.39ZM2452.25 1136.84C2462.15 1126.95 2466.73 1115.12 2466.01 1101.36C2465.28 1087.12 2458.04 1073.12 2444.28 1059.37C2430.53 1045.61 2416.65 1038.49 2402.65 1038.01C2388.89 1037.28 2377.19 1041.75 2367.53 1051.4C2357.88 1061.06 2353.41 1072.76 2354.14 1086.52C2354.86 1100.28 2362.1 1114.04 2375.86 1127.79C2389.86 1141.79 2403.62 1149.27 2417.13 1150.24C2430.65 1151.2 2442.35 1146.74 2452.25 1136.84ZM2743.96 968.227C2723.69 988.501 2701.24 1002.5 2676.62 1010.22C2652.24 1017.71 2627.62 1018.19 2602.76 1011.67C2577.9 1005.16 2554.85 991.277 2533.61 970.037C2512.62 949.039 2498.86 926.11 2492.34 901.25C2486.07 876.149 2486.67 851.409 2494.15 827.032C2501.88 802.413 2515.87 779.967 2536.15 759.693C2556.42 739.419 2578.75 725.54 2603.13 718.058C2627.74 710.335 2652.48 709.731 2677.34 716.248C2702.45 722.523 2725.5 736.16 2746.49 757.158C2767.49 778.157 2781.25 801.327 2787.77 826.67C2794.28 851.53 2793.68 876.269 2785.96 900.888C2778.23 925.506 2764.23 947.953 2743.96 968.227ZM2682.41 906.68C2692.31 896.785 2696.89 884.958 2696.17 871.201C2695.45 856.961 2688.21 842.962 2674.45 829.204C2660.69 815.447 2646.81 808.327 2632.81 807.844C2619.06 807.12 2607.35 811.585 2597.7 821.239C2588.04 830.894 2583.58 842.6 2584.3 856.357C2585.02 870.115 2592.27 883.872 2606.02 897.63C2620.02 911.628 2633.78 919.11 2647.29 920.076C2660.81 921.041 2672.52 916.576 2682.41 906.68ZM2805.05 492.24C2828.46 468.828 2854.89 458.087 2884.34 460.018C2913.54 461.708 2941.42 475.827 2967.97 502.377L3086.35 620.763L3015.39 691.723L2906.42 582.749C2894.84 571.164 2882.77 565.13 2870.22 564.647C2857.43 563.923 2845.96 568.63 2835.82 578.767C2825.2 589.387 2820.26 601.093 2820.98 613.885C2821.46 626.435 2827.5 638.503 2839.08 650.088L2948.06 759.062L2877.1 830.022L2673.99 626.918L2744.95 555.958L2773.92 584.921C2771.02 569.474 2772.1 553.665 2777.17 537.494C2782 521.082 2791.29 505.997 2805.05 492.24Z" fill="white"/>
<defs>
<filter id="filter0_d_279_2106" x="0.425781" y="0.426758" width="4597.71" height="4597.7" filterUnits="userSpaceOnUse" color-interpolation-filters="sRGB">
<feFlood flood-opacity="0" result="BackgroundImageFix"/>
<feColorMatrix in="SourceAlpha" type="matrix" values="0 0 0 0 0 0 0 0 0 0 0 0 0 0 0 0 0 0 127 0" result="hardAlpha"/>
<feOffset dy="4"/>
<feGaussianBlur stdDeviation="8"/>
<feComposite in2="hardAlpha" operator="out"/>
<feColorMatrix type="matrix" values="0 0 0 0 0 0 0 0 0 0 0 0 0 0 0 0 0 0 0.25 0"/>
<feBlend mode="normal" in2="BackgroundImageFix" result="effect1_dropShadow_279_2106"/>
<feBlend mode="normal" in="SourceGraphic" in2="effect1_dropShadow_279_2106" result="shape"/>
</filter>
</defs>
</svg>
