<svg width="7349" height="7353" viewBox="0 0 7349 7353" fill="none" xmlns="http://www.w3.org/2000/svg">
<g filter="url(#filter0_d_284_2115)">
<path d="M1091.67 7332.57L7332.25 1091.99L5149.4 1091.99L1091.67 5149.72L1091.67 7332.57Z" fill="white" fill-opacity="0.2" shape-rendering="crispEdges"/>
<path d="M5149.61 1092.49L7331.05 1092.49L1092.17 7331.36L1092.17 5149.93L5149.61 1092.49Z" stroke="white" shape-rendering="crispEdges"/>
</g>
<path d="M2426.52 4903.27C2401.42 4878.17 2384.29 4850.65 2375.12 4820.72C2365.94 4790.31 2365.58 4760.02 2374.03 4729.85C2382.24 4699.44 2398.89 4671.69 2423.99 4646.58C2455.85 4614.72 2491.21 4596.5 2530.07 4591.92C2568.69 4587.09 2605.73 4596.14 2641.21 4619.07L2564.82 4695.46C2550.58 4690.39 2536.83 4689.43 2523.55 4692.56C2510.52 4695.46 2498.69 4702.22 2488.07 4712.84C2471.66 4729.25 2464.42 4748.32 2466.35 4770.04C2468.28 4791.28 2479.02 4811.67 2498.57 4831.22C2518.36 4851.02 2539 4862 2560.48 4864.17C2581.96 4865.86 2600.91 4858.5 2617.32 4842.09C2627.94 4831.47 2634.7 4819.64 2637.59 4806.61C2640.73 4793.33 2639.77 4779.57 2634.7 4765.33L2711.09 4688.94C2734.02 4724.42 2743.19 4761.59 2738.6 4800.45C2733.77 4839.07 2715.43 4874.31 2683.57 4906.17C2658.47 4931.27 2630.84 4948.04 2600.67 4956.49C2570.25 4964.7 2539.96 4964.33 2509.79 4955.4C2479.62 4945.99 2451.87 4928.61 2426.52 4903.27ZM2934.76 4656.43C2914.48 4676.7 2892.04 4690.7 2867.42 4698.42C2843.04 4705.91 2818.42 4706.39 2793.56 4699.87C2768.7 4693.36 2745.65 4679.48 2724.41 4658.24C2703.42 4637.24 2689.66 4614.31 2683.14 4589.45C2676.87 4564.35 2677.47 4539.61 2684.95 4515.23C2692.68 4490.61 2706.67 4468.17 2726.95 4447.89C2747.22 4427.62 2769.55 4413.74 2793.93 4406.26C2818.54 4398.53 2843.28 4397.93 2868.14 4404.45C2893.25 4410.72 2916.3 4424.36 2937.29 4445.36C2958.29 4466.36 2972.05 4489.53 2978.57 4514.87C2985.08 4539.73 2984.48 4564.47 2976.76 4589.09C2969.03 4613.71 2955.03 4636.15 2934.76 4656.43ZM2873.21 4594.88C2883.11 4584.98 2887.69 4573.16 2886.97 4559.4C2886.25 4545.16 2879.01 4531.16 2865.25 4517.4C2851.49 4503.65 2837.61 4496.53 2823.61 4496.04C2809.86 4495.32 2798.15 4499.79 2788.5 4509.44C2778.84 4519.09 2774.38 4530.8 2775.1 4544.56C2775.82 4558.31 2783.06 4572.07 2796.82 4585.83C2810.82 4599.83 2824.58 4607.31 2838.09 4608.28C2851.61 4609.24 2863.32 4604.78 2873.21 4594.88ZM3128.36 4047.93C3153.94 4022.35 3181.7 4010.04 3211.63 4011.01C3241.8 4011.73 3270.28 4025.49 3297.07 4052.28L3415.45 4170.66L3344.49 4241.62L3235.52 4132.65C3224.66 4121.79 3213.19 4116.36 3201.13 4116.36C3189.06 4116.36 3177.84 4121.55 3167.46 4131.93C3157.08 4142.3 3151.89 4153.53 3151.89 4165.6C3151.89 4177.66 3157.32 4189.13 3168.18 4199.99L3277.15 4308.96L3206.19 4379.92L3097.22 4270.95C3086.36 4260.09 3074.9 4254.66 3062.83 4254.66C3051 4254.42 3039.9 4259.48 3029.52 4269.86C3018.9 4280.48 3013.59 4291.83 3013.59 4303.89C3013.59 4315.96 3019.02 4327.43 3029.88 4338.29L3138.86 4447.26L3067.9 4518.22L2864.79 4315.12L2935.75 4244.16L2962.54 4270.95C2960.13 4255.99 2961.34 4241.02 2966.16 4226.06C2970.99 4210.61 2979.92 4196.37 2992.95 4183.34C3007.92 4168.37 3024.45 4158.36 3042.55 4153.29C3060.9 4147.98 3079.36 4147.86 3097.95 4152.92C3094.08 4134.58 3094.69 4116.12 3099.76 4097.53C3104.58 4078.71 3114.12 4062.17 3128.36 4047.93ZM3268.24 3874.02C3255.69 3886.57 3242.18 3893.33 3227.69 3894.29C3213.21 3894.77 3200.78 3889.83 3190.4 3879.45C3179.78 3868.83 3174.72 3856.28 3175.2 3841.79C3175.92 3827.07 3182.56 3813.44 3195.11 3800.88C3207.42 3788.58 3220.81 3782.18 3235.3 3781.7C3250.02 3780.97 3262.69 3785.92 3273.31 3796.54C3283.69 3806.92 3288.52 3819.47 3287.79 3834.19C3287.07 3848.43 3280.55 3861.71 3268.24 3874.02ZM3322.19 3857.72L3525.29 4060.83L3454.33 4131.79L3251.23 3928.68L3322.19 3857.72ZM3493.65 3682.64C3517.07 3659.22 3543.49 3648.48 3572.94 3650.42C3602.14 3652.1 3630.02 3666.22 3656.57 3692.77L3774.96 3811.16L3704 3882.12L3595.02 3773.15C3583.44 3761.56 3571.37 3755.53 3558.82 3755.04C3546.03 3754.32 3534.56 3759.03 3524.43 3769.16C3513.81 3779.78 3508.86 3791.49 3509.58 3804.28C3510.07 3816.83 3516.1 3828.9 3527.69 3840.49L3636.66 3949.46L3565.7 4020.42L3362.6 3817.31L3433.55 3746.36L3462.52 3775.32C3459.62 3759.87 3460.71 3744.06 3465.78 3727.89C3470.6 3711.48 3479.9 3696.39 3493.65 3682.64ZM3683.2 3491.64C3696.96 3477.89 3711.68 3468.72 3727.37 3464.13C3743.3 3459.3 3758.74 3458.82 3773.71 3462.68L3745.47 3434.44L3816.43 3363.48L4017.36 3564.41C4036.43 3583.48 4049.94 3604.24 4057.91 3626.68C4066.11 3649.37 4067.08 3673.03 4060.8 3697.64C4054.77 3722.02 4040.05 3745.92 4016.64 3769.33C3985.26 3800.7 3952.8 3818.44 3919.25 3822.55C3885.7 3826.65 3854.92 3817.36 3826.93 3794.67L3896.8 3724.8C3904.77 3729.87 3913.45 3731.31 3922.87 3729.14C3932.28 3726.97 3941.57 3721.3 3950.74 3712.13C3974.88 3687.99 3973.43 3662.41 3946.4 3635.37L3920.33 3609.31C3924.19 3624.27 3923.71 3639.72 3918.88 3655.65C3914.3 3671.34 3905.13 3686.06 3891.37 3699.82C3875.2 3715.99 3856.25 3726.49 3834.53 3731.31C3813.05 3735.9 3790.6 3734.21 3767.19 3726.25C3743.78 3717.8 3721.57 3703.07 3700.58 3682.08C3679.58 3661.08 3664.98 3638.99 3656.77 3615.82C3648.8 3592.41 3647.11 3569.97 3651.7 3548.48C3656.53 3526.76 3667.03 3507.82 3683.2 3491.64ZM3846.84 3535.81C3833.81 3522.78 3819.93 3516.14 3805.2 3515.9C3790.72 3515.42 3778.29 3520.37 3767.91 3530.74C3757.29 3541.36 3752.23 3553.91 3752.71 3568.4C3752.95 3582.64 3759.71 3596.39 3772.98 3609.67C3786.02 3622.7 3799.89 3629.58 3814.62 3630.3C3829.1 3630.79 3841.65 3625.72 3852.27 3615.1C3862.65 3604.72 3867.6 3592.29 3867.11 3577.81C3866.87 3563.09 3860.11 3549.09 3846.84 3535.81ZM4228.1 3363.09C4198.41 3392.77 4167.04 3410.15 4133.97 3415.22C4100.66 3420.05 4070.13 3410.03 4042.37 3385.17L4118.04 3309.5C4127.69 3317.71 4136.87 3321.57 4145.55 3321.09C4154.24 3320.61 4162.21 3316.75 4169.45 3309.5C4175.97 3302.99 4179.71 3296.11 4180.67 3288.87C4181.64 3281.15 4179.22 3274.39 4173.43 3268.59C4165.95 3261.11 4156.66 3258.82 4145.55 3261.72C4134.45 3264.61 4118.52 3271.37 4097.77 3281.99C4075.56 3293.09 4056.73 3301.3 4041.29 3306.61C4025.84 3311.44 4009.31 3312.76 3991.69 3310.59C3974.07 3307.94 3957.17 3298.52 3941 3282.35C3924.59 3265.94 3914.69 3247.84 3911.32 3228.05C3907.7 3208.01 3910.11 3187.74 3918.56 3167.22C3927 3146.71 3940.4 3127.28 3958.74 3108.94C3988.43 3079.25 4019.08 3062.59 4050.7 3058.97C4082.32 3054.87 4111.28 3064.77 4137.59 3088.66L4060.48 3165.78C4052.51 3158.29 4044.3 3154.91 4035.86 3155.64C4027.65 3156.12 4020.05 3159.86 4013.05 3166.86C4007.74 3172.17 4004.96 3178.08 4004.72 3184.6C4004.48 3191.12 4007.26 3197.27 4013.05 3203.07C4017.88 3207.89 4023.91 3210.31 4031.15 3210.31C4038.39 3209.82 4046.11 3208.13 4054.32 3205.24C4062.29 3202.1 4073.63 3197.03 4088.35 3190.03C4110.08 3179.41 4128.9 3171.69 4144.83 3166.86C4160.76 3161.55 4177.41 3160.1 4194.79 3162.52C4212.17 3164.45 4228.34 3172.9 4243.31 3187.86C4258.51 3203.07 4268.29 3220.56 4272.63 3240.36C4277.22 3259.91 4275.77 3280.42 4268.29 3301.9C4261.05 3323.14 4247.65 3343.54 4228.1 3363.09ZM4450.8 3140.39C4430.52 3160.66 4408.08 3174.66 4383.46 3182.39C4359.08 3189.87 4334.46 3190.35 4309.6 3183.83C4284.74 3177.32 4261.69 3163.44 4240.45 3142.2C4219.45 3121.2 4205.7 3098.27 4199.18 3073.41C4192.9 3048.31 4193.51 3023.57 4200.99 2999.2C4208.71 2974.58 4222.71 2952.13 4242.99 2931.86C4263.26 2911.58 4285.59 2897.7 4309.96 2890.22C4334.58 2882.5 4359.32 2881.89 4384.18 2888.41C4409.28 2894.69 4432.33 2908.32 4453.33 2929.32C4474.33 2950.32 4488.09 2973.49 4494.6 2998.83C4501.12 3023.69 4500.52 3048.43 4492.79 3073.05C4485.07 3097.67 4471.07 3120.12 4450.8 3140.39ZM4389.25 3078.84C4399.15 3068.95 4403.73 3057.12 4403.01 3043.36C4402.28 3029.12 4395.04 3015.12 4381.28 3001.37C4367.53 2987.61 4353.65 2980.49 4339.65 2980.01C4325.89 2979.28 4314.19 2983.75 4304.53 2993.4C4294.88 3003.06 4290.41 3014.76 4291.14 3028.52C4291.86 3042.28 4299.1 3056.04 4312.86 3069.79C4326.86 3083.79 4340.62 3091.27 4354.13 3092.24C4367.65 3093.2 4379.35 3088.74 4389.25 3078.84ZM4680.96 2910.23C4660.69 2930.5 4638.24 2944.5 4613.62 2952.22C4589.24 2959.71 4564.62 2960.19 4539.76 2953.67C4514.9 2947.16 4491.85 2933.28 4470.61 2912.04C4449.62 2891.04 4435.86 2868.11 4429.34 2843.25C4423.07 2818.15 4423.67 2793.41 4431.15 2769.03C4438.88 2744.41 4452.87 2721.97 4473.15 2701.69C4493.42 2681.42 4515.75 2667.54 4540.13 2660.06C4564.74 2652.33 4589.48 2651.73 4614.34 2658.25C4639.45 2664.52 4662.5 2678.16 4683.49 2699.16C4704.49 2720.16 4718.25 2743.33 4724.77 2768.67C4731.28 2793.53 4730.68 2818.27 4722.96 2842.89C4715.23 2867.51 4701.23 2889.95 4680.96 2910.23ZM4619.41 2848.68C4629.31 2838.78 4633.89 2826.96 4633.17 2813.2C4632.45 2798.96 4625.21 2784.96 4611.45 2771.2C4597.69 2757.45 4583.81 2750.33 4569.81 2749.84C4556.06 2749.12 4544.35 2753.58 4534.7 2763.24C4525.04 2772.89 4520.58 2784.6 4521.3 2798.36C4522.02 2812.11 4529.27 2825.87 4543.02 2839.63C4557.02 2853.63 4570.78 2861.11 4584.29 2862.08C4597.81 2863.04 4609.52 2858.58 4619.41 2848.68ZM4742.05 2434.24C4765.46 2410.83 4791.89 2400.09 4821.34 2402.02C4850.54 2403.71 4878.42 2417.83 4904.97 2444.38L5023.35 2562.76L4952.39 2633.72L4843.42 2524.75C4831.84 2513.16 4819.77 2507.13 4807.22 2506.65C4794.43 2505.92 4782.96 2510.63 4772.82 2520.77C4762.2 2531.39 4757.26 2543.09 4757.98 2555.88C4758.46 2568.44 4764.5 2580.5 4776.08 2592.09L4885.06 2701.06L4814.1 2772.02L4610.99 2568.92L4681.95 2497.96L4710.92 2526.92C4708.02 2511.47 4709.1 2495.67 4714.17 2479.49C4719 2463.08 4728.29 2448 4742.05 2434.24Z" fill="white"/>
<defs>
<filter id="filter0_d_284_2115" x="1075.67" y="1079.99" width="6272.58" height="6272.58" filterUnits="userSpaceOnUse" color-interpolation-filters="sRGB">
<feFlood flood-opacity="0" result="BackgroundImageFix"/>
<feColorMatrix in="SourceAlpha" type="matrix" values="0 0 0 0 0 0 0 0 0 0 0 0 0 0 0 0 0 0 127 0" result="hardAlpha"/>
<feOffset dy="4"/>
<feGaussianBlur stdDeviation="8"/>
<feComposite in2="hardAlpha" operator="out"/>
<feColorMatrix type="matrix" values="0 0 0 0 0 0 0 0 0 0 0 0 0 0 0 0 0 0 0.25 0"/>
<feBlend mode="normal" in2="BackgroundImageFix" result="effect1_dropShadow_284_2115"/>
<feBlend mode="normal" in="SourceGraphic" in2="effect1_dropShadow_284_2115" result="shape"/>
</filter>
</defs>
</svg>
